<svg width="331" height="203" viewBox="0 0 331 203" fill="none" xmlns="http://www.w3.org/2000/svg">
<g filter="url(#filter0_d)">
<mask id="path-1-inside-1" fill="white">
<path fill-rule="evenodd" clip-rule="evenodd" d="M181.146 26.7119L165.5 5L149.854 26.7119H20C14.4772 26.7119 10 31.189 10 36.7119V178C10 183.523 14.4771 188 20 188H311C316.523 188 321 183.523 321 178V36.7119C321 31.189 316.523 26.7119 311 26.7119H181.146Z"/>
</mask>
<path fill-rule="evenodd" clip-rule="evenodd" d="M181.146 26.7119L165.5 5L149.854 26.7119H20C14.4772 26.7119 10 31.189 10 36.7119V178C10 183.523 14.4771 188 20 188H311C316.523 188 321 183.523 321 178V36.7119C321 31.189 316.523 26.7119 311 26.7119H181.146Z" fill="#FBFBFB"/>
<path d="M165.5 5L167.123 3.83073L165.5 1.57906L163.878 3.83073L165.5 5ZM181.146 26.7119L179.524 27.8811L180.122 28.7119H181.146V26.7119ZM149.854 26.7119V28.7119H150.878L151.477 27.8811L149.854 26.7119ZM163.878 6.16927L179.524 27.8811L182.769 25.5426L167.123 3.83073L163.878 6.16927ZM151.477 27.8811L167.123 6.16927L163.878 3.83073L148.232 25.5426L151.477 27.8811ZM20 28.7119H149.854V24.7119H20V28.7119ZM12 36.7119C12 32.2936 15.5817 28.7119 20 28.7119V24.7119C13.3726 24.7119 8 30.0845 8 36.7119H12ZM12 178V36.7119H8V178H12ZM20 186C15.5817 186 12 182.418 12 178H8C8 184.627 13.3726 190 20 190V186ZM311 186H20V190H311V186ZM319 178C319 182.418 315.418 186 311 186V190C317.627 190 323 184.627 323 178H319ZM319 36.7119V178H323V36.7119H319ZM311 28.7119C315.418 28.7119 319 32.2936 319 36.7119H323C323 30.0844 317.627 24.7119 311 24.7119V28.7119ZM181.146 28.7119H311V24.7119H181.146V28.7119Z" fill="#B31B1B" mask="url(#path-1-inside-1)"/>
</g>
<defs>
<filter id="filter0_d" x="0" y="0" width="331" height="203" filterUnits="userSpaceOnUse" color-interpolation-filters="sRGB">
<feFlood flood-opacity="0" result="BackgroundImageFix"/>
<feColorMatrix in="SourceAlpha" type="matrix" values="0 0 0 0 0 0 0 0 0 0 0 0 0 0 0 0 0 0 127 0"/>
<feOffset dy="5"/>
<feGaussianBlur stdDeviation="5"/>
<feColorMatrix type="matrix" values="0 0 0 0 0 0 0 0 0 0 0 0 0 0 0 0 0 0 0.25 0"/>
<feBlend mode="normal" in2="BackgroundImageFix" result="effect1_dropShadow"/>
<feBlend mode="normal" in="SourceGraphic" in2="effect1_dropShadow" result="shape"/>
</filter>
</defs>
</svg>
