<?xml version="1.0" encoding="utf-8"?>
<!-- Generator: Adobe Illustrator 24.1.2, SVG Export Plug-In . SVG Version: 6.00 Build 0)  -->
<svg version="1.1" id="Layer_1" xmlns="http://www.w3.org/2000/svg" xmlns:xlink="http://www.w3.org/1999/xlink" x="0px" y="0px"
	 viewBox="0 0 700 700" style="enable-background:new 0 0 700 700;" xml:space="preserve">
<style type="text/css">
	.st0{display:none;fill:#FBFEF2;}
	.st1{fill:#70665E;}
	.st2{fill:#4F5053;}
	.st3{fill:#B7B2AC;}
	.st4{fill:#76695A;}
	.st5{fill:#41413B;}
	.st6{fill:#BCB7AF;}
	.st7{fill:#E0DAD1;}
	.st8{fill:#3A3F42;}
	.st9{fill:#767474;}
	.st10{fill:#464649;}
	.st11{fill:#535458;}
	.st12{fill:#8A8C99;}
	.st13{fill:#C6C0BB;}
	.st14{fill:#636370;}
	.st15{fill:#9E9C98;}
	.st16{fill:#CEC7BE;}
	.st17{fill:#C4BEB4;}
	.st18{fill:#4B5B70;}
	.st19{fill:#F7EFE3;}
	.st20{fill:#E3D6C7;}
</style>
<polygon class="st0" points="382,260.5 382,105.5 354,121.82 354,260.5 "/>
<g>
	<polyline class="st1" points="378.69,322.08 391.64,655.87 414.44,652.22 417.33,320.47 	"/>
	<path class="st2" d="M89.24,286.27v13.2c0,0,270.6,55.8,518.4,2.4v-10.8C607.64,291.07,102.44,291.07,89.24,286.27z"/>
	<path class="st3" d="M607.64,291.07c23.4-1.8-517.8-4.2-517.8-4.2S404.52,306.69,607.64,291.07z"/>
	<polygon class="st4" points="391.36,648.67 414.5,644.82 414.44,652.27 391.64,655.87 	"/>
	<path class="st5" d="M391.64,655.87c0,0-34.74,10.78-13.26,16.78c0.04,0.01,0.08,0.02,0.12,0.02c1.07,0.15,16.48,2.05,41.94-7.21
		l38.83-15.1c0.84-0.33,0.59-1.58-0.31-1.55c-11.34,0.39-39.72,2.25-44.52,3.45"/>
	<polyline class="st6" points="403.64,245.7 514.04,247.87 514.04,252.67 403.64,249.18 	"/>
	<path class="st7" d="M392.35,244.44l-85.91-1.37c0,0-2.4,2.4,0,3.6l85.91,1.48"/>
	<circle class="st8" cx="305.84" cy="259.27" r="4.2"/>
	<polyline class="st9" points="301.64,257.43 295.64,257.47 295.64,259.87 301.64,260.26 	"/>
	<path class="st10" d="M289.64,253.87c0,0-6,0-6,4.8c0,0,0,6,6,6V253.87z"/>
	<path class="st11" d="M307.64,246.97v0.9h-10.8c-0.66,0-1.2,0.54-1.2,1.2v11.17c0,0.53-0.34,1.01-0.85,1.16
		c-1.45,0.42-3.1,0.28-4.13,0.12c-0.59-0.09-1.01-0.59-1.01-1.19v-26.86c0-0.66-0.54-1.2-1.2-1.2l-4.2-0.6l24.09-0.6
		c0.33,0,0.65,0.13,0.86,0.39c1.79,2.14-0.35,3.21-0.35,3.21h-7.2c-0.66,0-1.2,0.54-1.2,1.2l0,0c0,0.66-0.54,1.2-1.2,1.2h0
		c-0.66,0-1.2,0.54-1.2,1.2v1.2c0,0.66,0.54,1.2,1.2,1.2h7.2c0.66,0,1.2,0.54,1.2,1.2v1.2"/>
	<polyline class="st12" points="301.64,284.04 301.64,288.67 306.44,291.07 354.44,291.07 355.04,286.87 	"/>
	<path class="st13" d="M301.35,283.87l6.17,3.53c0.08,0.05,0.17,0.07,0.27,0.07h47.73c0.58,0,0.75-0.79,0.22-1.03l-8.39-3.73
		c-0.07-0.03-0.14-0.05-0.22-0.05h-45.46C301,282.67,300.77,283.54,301.35,283.87z"/>
	<polyline class="st14" points="366.08,283.09 366.08,288.25 373.64,292.27 431.24,292.27 431.24,287.47 	"/>
	<path class="st15" d="M367.43,283.16l8.61,4.3h55.31c0.25,0,0.32-0.34,0.09-0.44l-9.8-4.36h-54.09
		C367.27,282.67,367.18,283.04,367.43,283.16z"/>
	<polyline class="st16" points="403.64,241.04 403.64,283.21 398.84,284.47 391.64,283.21 392.42,241.04 	"/>
	<polygon class="st17" points="399.91,241.19 398.84,284.47 404.24,283.27 404.81,241.29 	"/>
	<polyline class="st18" points="516.22,241.22 516.44,245.47 514.04,247.87 514.04,252.67 517.64,252.67 520.04,247.87 
		522.44,247.87 522.44,245.47 520.04,245.47 520.04,241.87 	"/>
	<path class="st19" d="M373.64,58.27v180.11c0,1.27,1.02,2.31,2.29,2.34l115.43,2.31c1.27,0.03,2.32-0.96,2.38-2.23l9.37-197.94
		c0.07-1.39-1.08-2.53-2.47-2.45C481.93,41.47,368.13,48.35,373.64,58.27z"/>
	<path class="st20" d="M509.13,167.79l-5.16,71.7c-0.07,0.97,0.68,1.8,1.65,1.83l52.36,1.69c0.93,0.03,1.71-0.68,1.76-1.61
		l4.58-75.64c0.06-1.01-0.77-1.86-1.78-1.81l-51.78,2.25C509.89,166.24,509.19,166.92,509.13,167.79z"/>
	<path class="st11" d="M324.62,213.3c0,0-7.35,15.81-10.45,18.2c-0.19,0.15-0.43,0.23-0.67,0.24l-31.53,1.09
		c-0.73,0.03-1.33-0.56-1.33-1.29v-0.3c0-0.41,0.34-0.73,0.74-0.7c3.89,0.3,22.16,0.7,33.97-16.44c0.44-0.64,1.14-1.06,1.92-1.11
		l6.84-0.46C324.52,212.5,324.81,212.93,324.62,213.3z"/>
</g>
</svg>
