<?xml version="1.0" encoding="utf-8"?>
<!-- Generator: Adobe Illustrator 24.1.2, SVG Export Plug-In . SVG Version: 6.00 Build 0)  -->
<svg version="1.1" id="Layer_1" xmlns="http://www.w3.org/2000/svg" xmlns:xlink="http://www.w3.org/1999/xlink" x="0px" y="0px"
	 viewBox="0 0 700 700" style="enable-background:new 0 0 700 700;" xml:space="preserve">
<style type="text/css">
	.st0{fill:#0F0915;}
	.st1{fill:#2A1726;}
	.st2{fill:#7C5F65;}
	.st3{fill:#9D9489;}
	.st4{fill:#E5DFDF;}
	.st5{fill:#C69E83;}
	.st6{fill:#896C60;}
	.st7{fill:#827B7A;}
	.st8{fill:#797879;}
	.st9{fill:#73544E;}
	.st10{fill:#4F453E;}
	.st11{fill:#8C080D;}
	.st12{fill:#584950;}
	.st13{fill:#654B48;}
	.st14{fill:#908778;}
	.st15{fill:#C3B0AD;}
	.st16{fill:#7F0B10;}
	.st17{fill:#BDAEA6;}
	.st18{fill:#5F5146;}
	.st19{fill:#352926;}
	.st20{fill:#FFFFFF;}
</style>
<path class="st0" d="M328,436l13,65l-2,172c0,0,2,23,55-2c0,0-18-8-37-8l1-162l38.4-64.86"/>
<polyline class="st1" points="345.5,384 345.98,399.5 349.5,399.5 349.5,385.58 "/>
<path class="st2" d="M398.5,399.5V391c0,0,1-1,2,0v8.77"/>
<path class="st3" d="M502.5,418c0,0-55,41-333,3l-10-11"/>
<path class="st4" d="M160.5,410c0,0,182-24,332-2l10,10C502.5,418,290.5,429,160.5,410z"/>
<path class="st5" d="M402.4,399.85l5.1,8.15l-78-1l-2-8.13C327.5,398.87,377,397.5,402.4,399.85z"/>
<path class="st6" d="M333.5,405v-9c0,0,1-1,2,0v9H333.5z"/>
<path class="st7" d="M330.5,398.72V391c0,0,1-1,2,0v7.72"/>
<path class="st8" d="M405.5,405v-8c0,0-1-1-2,0v8H405.5z"/>
<path class="st9" d="M349.5,403v-6h4v6C353.5,403,351.5,405,349.5,403z"/>
<polyline class="st10" points="409,335 477.5,335 477.5,337 409.2,337 "/>
<path class="st11" d="M338.48,24.54l-10.96,360.69c-0.01,0.42,0.32,0.76,0.74,0.75c7.37-0.21,66.14-1.78,78.45-0.1
	c0.43,0.06,0.8-0.26,0.82-0.69l11.95-344.62c0.01-0.33-0.2-0.63-0.52-0.72c-6.32-1.84-66.5-19.16-79.94-15.98
	C338.71,23.93,338.49,24.22,338.48,24.54z"/>
<polyline class="st12" points="329.08,333.86 236.5,335 236.5,337 329.04,335.43 "/>
<path class="st13" d="M343.5,397h3v6c0,0-1,2-3,0V397z"/>
<path class="st14" d="M236.5,335c0,0-38-10-45,1c0,0-3,13,45,1"/>
<path class="st15" d="M477.5,334.57v-5.1c0-0.54,0.36-0.97,0.8-0.97h2.4c0.44,0,0.8,0.43,0.8,0.97v6.56c0,0.54-0.36,0.97-0.8,0.97
	h-3.2"/>
<path class="st16" d="M471.5,172.5l-8,157l58,1l7-154C528.5,176.5,472.5,168.5,471.5,172.5z"/>
<path class="st17" d="M484.27,171.88l0.23-5.88c0,0,1-1,4,0v6"/>
<polyline class="st18" points="415.3,160.99 484.27,167.5 484.27,168.78 415.3,162.65 "/>
<path class="st19" d="M159.97,409.68c11.33,2.08,122.5,21.11,342.83,8.83c0.08,0,0.12-0.1,0.06-0.16l-2.7-2.7
	c-0.02-0.02-0.04-0.03-0.07-0.03c-3.21,0.2-199.64,12.22-327.82-6.12c0,0-0.01,0-0.01,0h-12.26
	C159.88,409.5,159.86,409.66,159.97,409.68z"/>
<polygon class="st20" points="501.61,418.58 502.5,418 504,419.5 "/>
</svg>
