<?xml version="1.0" encoding="utf-8"?>
<!-- Generator: Adobe Illustrator 24.1.2, SVG Export Plug-In . SVG Version: 6.00 Build 0)  -->
<svg version="1.1" id="Layer_1" xmlns="http://www.w3.org/2000/svg" xmlns:xlink="http://www.w3.org/1999/xlink" x="0px" y="0px"
	 viewBox="0 0 700 700" style="enable-background:new 0 0 700 700;" xml:space="preserve">
<style type="text/css">
	.st0{fill:#20211F;}
	.st1{fill:#242015;}
	.st2{fill:#EE2A22;}
	.st3{fill:#63626F;}
	.st4{fill:#CE1313;}
	.st5{fill:#A2A6A4;}
	.st6{fill:#EAEEF0;}
	.st7{fill:#B4B4B9;}
	.st8{fill:#728592;}
	.st9{fill:#D91511;}
	.st10{fill:#616563;}
	.st11{fill:#F0EFED;}
	.st12{fill:#C5CDE0;}
	.st13{fill:#060608;}
	.st14{fill:#BBD3F6;}
	.st15{fill:#9DAEC9;}
	.st16{fill:#9EAACA;}
	.st17{fill:#161C23;}
	.st18{fill:#5D6475;}
</style>
<g>
	<path class="st0" d="M324.61,450.35l13.46,49.74c0.02,0.07,0.03,0.14,0.03,0.21v156.6c0,0.3-0.16,0.56-0.42,0.7
		c-2.14,1.14-11.35,6.83,0.42,15.39c0,0,11.62,12.78,72.56-2.81c0.8-0.21,0.81-1.35,0-1.55l-34.76-8.69c-0.35-0.09-0.6-0.4-0.6-0.77
		l-1.19-128.92c0-0.03,0-0.07-0.01-0.1c-0.13-0.84-1.81-14.1,15.61-41.96l24-38.47"/>
	<path class="st1" d="M152.1,423.39l7.77,5.83c1.21,0.91,2.61,1.52,4.09,1.8c23.67,4.4,200.53,40.37,348.13,4.37"/>
	<path class="st2" d="M512.1,426.99v0.6v7.8c-166.8,15.6-360-12-360-12l1.2-7.2"/>
	<path class="st3" d="M158.1,416.19c0,0,222-25.2,346.8-4.8l7.2,15.6C512.1,426.99,368.1,438.99,158.1,416.19z"/>
	<path class="st4" d="M318.15,17.51l12.61-2.1c0.09-0.02,0.19-0.02,0.29-0.03l72.33-1.17c1.06-0.02,1.94,0.83,1.96,1.9l5.94,371.71
		c0.02,1.08-0.85,1.96-1.93,1.96h-79.4c-0.16,0-0.31-0.02-0.47-0.06l-3.14-0.79c-0.84-0.21-1.44-0.96-1.46-1.83l-8.33-367.66
		C316.52,18.5,317.21,17.67,318.15,17.51z"/>
	<polyline class="st5" points="407.2,132.94 489.3,131.79 489.3,134.19 407.24,135.72 	"/>
	<rect x="489.3" y="130.59" class="st6" width="4.8" height="8.4"/>
	<polyline class="st7" points="410.24,323.28 486.9,323.79 486.9,327.39 410.29,326.18 	"/>
	<polyline class="st8" points="486.9,317.19 486.9,328.59 491.7,328.59 491.7,317.19 	"/>
	<path class="st9" d="M471.28,142.55l-1.15,171.63c-0.01,1.99,1.6,3.61,3.59,3.61h61.25c1.96,0,3.56-1.58,3.59-3.54l2.32-172.98
		c0.02-1.25-0.99-2.28-2.25-2.28h-63.76C472.89,138.99,471.29,140.58,471.28,142.55z"/>
	<polyline class="st10" points="323.39,322.02 261.3,321.39 261.3,323.79 323.39,324.89 	"/>
	<path class="st11" d="M261.3,321.39c0,0-45.6-14.4-52.8,1.2c0,0-1.2,15.6,52.8,1.2"/>
	<polyline class="st12" points="475.88,407.59 480.9,425.79 380.1,426.99 384.9,406.59 440.59,404.9 	"/>
	<polygon class="st13" points="390.9,411.39 388.5,420.99 471.3,419.79 470.1,410.19 	"/>
	<polygon class="st14" points="290.1,398.19 291.3,395.79 371.7,396.99 369.3,414.99 369.9,421.59 287.1,421.59 286.5,414.99 
		282.9,414.99 282.9,410.19 275.7,410.19 275.7,406.63 279.3,398.19 	"/>
	<line class="st15" x1="286.5" y1="413.79" x2="369.9" y2="414.39"/>
	<line class="st16" x1="282.9" y1="410.19" x2="369.9" y2="411.39"/>
	<path class="st17" d="M344.81,389.79l-0.11,9c0,0,2.4,2.4,6,0v-9"/>
	<path class="st18" d="M344.7,397.59c0,0-3.6,0-3.6,4.8c0,0,6,6,13.2,0c0,0,1.2-3.6-3.6-4.8C350.7,397.59,347.1,399.99,344.7,397.59
		z"/>
</g>
<path class="st2" d="M655,414"/>
</svg>
