<?xml version="1.0" encoding="utf-8"?>
<!-- Generator: Adobe Illustrator 24.1.2, SVG Export Plug-In . SVG Version: 6.00 Build 0)  -->
<svg version="1.1" id="Layer_1" xmlns="http://www.w3.org/2000/svg" xmlns:xlink="http://www.w3.org/1999/xlink" x="0px" y="0px"
	 viewBox="0 0 700 700" style="enable-background:new 0 0 700 700;" xml:space="preserve">
<style type="text/css">
	.st0{fill:#372E33;}
	.st1{fill:#595560;}
	.st2{fill:#7F787A;}
	.st3{fill:#534D56;}
	.st4{fill:#95929B;}
	.st5{fill:#353544;}
	.st6{fill:#0D1220;}
	.st7{fill:#0E060A;}
	.st8{fill:#424142;}
	.st9{fill:#2A263B;}
	.st10{fill:#898382;}
	.st11{fill:#2F2E29;}
	.st12{fill:#7B727B;}
	.st13{display:none;fill:none;stroke:#FFFF00;stroke-miterlimit:10;}
	.st14{fill:none;stroke:#FFFF00;stroke-miterlimit:10;}
	.st15{fill:#62605B;}
	.st16{fill:#0C080F;}
	.st17{fill:#2C292E;}
</style>
<path class="st0" d="M283.64,406.41c0,0,21.86-4.91,31.86,143.09v104h14l3-99c0,0,17-146,36-152"/>
<polyline class="st1" points="414,60 520.5,36.5 522,41 414,65 "/>
<path class="st2" d="M308.87,39.17c9.51-2.24,66.33-15.25,104.77-15.66c1.02-0.01,1.85,0.83,1.83,1.85l-3.95,279.34
	c-0.01,1-0.83,1.8-1.82,1.8H303.37c-1.02,0-1.85-0.84-1.82-1.87l5.93-263.73C307.49,40.08,308.06,39.36,308.87,39.17z"/>
<path class="st3" d="M105,384l-0.5,11.5l6,2c0,0,230.5,34.5,435-25v-5"/>
<path class="st4" d="M105,384c126-10,437.5-19.5,437.5-19.5l3,3C338,403,114,387,114,387L105,384z"/>
<path class="st5" d="M323.5,369.16c0,0-7.5,1.84-7.5,9.84c0,0,11,7,22-1c0,0,1-7-7-9"/>
<path class="st6" d="M324.16,306.5l-1.66,66c0,0,4.5,3.5,9,0l1.91-66"/>
<path class="st7" d="M315.5,652.5v24l-35,10c0,0,69,7.32,69-7c0-2-3-7-20-5v-22"/>
<path class="st8" d="M520.5,36.5l-0.74-2.21c-0.15-0.44,0.1-0.9,0.54-1.04l31.14-7.13c0.29-0.07,0.57,0.15,0.57,0.44l0.48,17.11
	c0,0.45-0.36,0.81-0.81,0.81h-7.37c-0.45,0-0.81-0.36-0.81-0.81v-5.11c0-0.54-0.52-0.93-1.04-0.78l-19.18,5.48
	c-0.43,0.12-0.88-0.12-1.01-0.55l-1.47-5.02"/>
<polyline class="st9" points="546.16,44.5 546.5,48.5 550.5,48.5 550.09,44.5 "/>
<polyline class="st10" points="412.28,251.4 530.5,248.5 530.5,252.13 412.28,255.4 "/>
<path class="st11" d="M548.8,234l0.99,9.9c0.11,1.14-0.75,2.14-1.9,2.2l-16.99,0.81c-1.07,0.05-1.91,0.93-1.91,2V251
	c0,1.1,0.9,2,2,2h28.78c1.19,0,2.11-1.03,1.99-2.21l-1.88-17.75"/>
<path class="st12" d="M532.59,50.6l7.82,182.88c0.05,1.11,0.99,1.98,2.11,1.93l60.96-2.81c1.11-0.05,1.97-1,1.92-2.11l-8.81-180.07
	c-0.05-1.07-0.94-1.92-2.01-1.92H534.6C533.46,48.5,532.54,49.46,532.59,50.6z"/>
<path class="st13" d="M151.5,371.5l21.77-0.99c0.16-0.01,0.31,0.01,0.46,0.06l19.59,6.53c0.28,0.09,0.23,0.5-0.06,0.53l-17.09,1.8
	c-0.44,0.05-0.88,0-1.3-0.14l-23-7.67c-0.18-0.06-0.37,0.07-0.37,0.27v2.07c0,0.33,0.2,0.62,0.51,0.73l23.2,8.7
	c0.19,0.07,0.39,0.1,0.59,0.07l17.4-1.93c0.17-0.02,0.3-0.16,0.3-0.33v-3.7"/>
<path class="st14" d="M302.51,261.56"/>
<polyline class="st15" points="302.66,254.88 243.5,256.5 243.5,261.5 302.66,260.33 "/>
<path class="st16" d="M286.41,407.35C292.31,412.19,298,428,298,428l58-3c0,0,5.24-15.99,10.37-21.25"/>
<path class="st17" d="M243.5,256.5c0,0-19-13-21,4c-0.53,4.47,6,16,21,1"/>
</svg>
